<svg aria-hidden="true" style="position: absolute; width: 0; height: 0; overflow: hidden;" version="1.1" xmlns="http://www.w3.org/2000/svg" xmlns:xlink="http://www.w3.org/1999/xlink">
<defs>
<symbol id="icon-trash" viewBox="0 0 32 32">
<path d="M13.867 3.2c-0.004-0-0.009-0-0.014-0-0.589 0-1.067 0.478-1.067 1.067v0h-6.385c-0.005-0-0.010-0-0.015-0-0.589 0-1.067 0.478-1.067 1.067s0.478 1.067 1.067 1.067c0.005 0 0.011-0 0.016-0h19.199c0.005 0 0.010 0 0.015 0 0.589 0 1.067-0.478 1.067-1.067s-0.478-1.067-1.067-1.067c-0.005 0-0.011 0-0.016 0h-6.385c0-0.589-0.478-1.067-1.067-1.067-0.005 0-0.010 0-0.015 0h-4.266zM6.4 8.533v17.067c0 1.179 0.955 2.133 2.133 2.133h14.933c1.179 0 2.133-0.955 2.133-2.133v-17.067h-19.2z"></path>
</symbol>
<symbol id="icon-edit" viewBox="0 0 32 32">
<path d="M17.069 9.882l5.049 5.049-9.325 9.325-5.723 1.914c-0.767 0.256-1.496-0.473-1.24-1.24l1.914-5.723 9.325-9.326zM18.326 8.625l2.326-2.326c0.694-0.694 1.82-0.694 2.514 0l2.535 2.535c0.694 0.694 0.694 1.82 0 2.514l-2.326 2.326-5.049-5.049z"></path>
</symbol>
<symbol id="icon-archive-add" viewBox="0 0 32 32">
<path d="M26 2h-20l-6 6v21c0 0.552 0.448 1 1 1h30c0.552 0 1-0.448 1-1v-21l-6-6zM16 26l-10-8h6v-6h8v6h6l-10 8zM4.828 6l2-2h18.343l2 2h-22.343z"></path>
</symbol>
<symbol id="icon-archive-remove" viewBox="0 0 32 32">
<path d="M26 2h-20l-6 6v21c0 0.552 0.448 1 1 1h30c0.552 0 1-0.448 1-1v-21l-6-6zM20 20v6h-8v-6h-6l10-8 10 8h-6zM4.828 6l2-2h18.343l2 2h-22.343z"></path>
</symbol>
<symbol id="icon-cross" viewBox="0 0 32 32">
<path d="M21.794 23.725l1.931-1.931-5.794-5.794 5.794-5.794-1.931-1.931-5.794 5.794-5.794-5.794-1.931 1.931 5.794 5.794-5.794 5.794 1.931 1.931 5.794-5.794z"></path>
</symbol>
<symbol id="icon-up-arrow" viewBox="0 0 32 32">
<path d="M31.68 21.932l-14.943-14.942c-0.213-0.214-0.459-0.321-0.737-0.321s-0.524 0.107-0.738 0.321l-14.942 14.942c-0.214 0.214-0.321 0.46-0.321 0.738s0.107 0.524 0.321 0.737l1.603 1.603c0.214 0.214 0.46 0.321 0.738 0.321s0.524-0.107 0.738-0.321l12.601-12.601 12.602 12.602c0.214 0.214 0.46 0.32 0.737 0.32s0.524-0.107 0.738-0.32l1.603-1.603c0.214-0.214 0.32-0.46 0.32-0.737s-0.106-0.524-0.32-0.738z"></path>
</symbol>
<symbol id="icon-arrow-down" viewBox="0 0 32 32">
<path d="M31.68 8.593l-1.603-1.603c-0.214-0.214-0.46-0.321-0.738-0.321s-0.523 0.107-0.737 0.321l-12.602 12.601-12.601-12.601c-0.214-0.214-0.46-0.321-0.738-0.321s-0.524 0.107-0.738 0.321l-1.603 1.603c-0.214 0.214-0.321 0.46-0.321 0.738s0.107 0.524 0.321 0.737l14.942 14.942c0.214 0.214 0.46 0.321 0.738 0.321s0.523-0.107 0.737-0.321l14.943-14.942c0.214-0.214 0.32-0.46 0.32-0.737s-0.106-0.524-0.32-0.738z"></path>
</symbol>
</defs>
</svg>
