<svg aria-hidden="true" style="position: absolute; width: 0; height: 0; overflow: hidden;" version="1.1" xmlns="http://www.w3.org/2000/svg" xmlns:xlink="http://www.w3.org/1999/xlink">
<defs>
<symbol id="icon-icon-trash" viewBox="0 0 32 32">
<path d="M14 3c-1.104 0-2 0.896-2 2v1h-0.2l-6.8 1v1.5h22v-1.5l-6.8-1h-0.2v-1c0-1.104-0.895-2-2-2h-4zM14 5h4v1h-4v-1zM6 9.5l1.351 16.661c0.084 1.038 0.952 1.839 1.994 1.839h13.312c1.042 0 1.909-0.799 1.993-1.838l1.313-16.162-19.962-0.5zM10 13c0.553 0 1 0.447 1 1v11.5h-1.5l-0.5-11.5c0-0.553 0.447-1 1-1zM16 13c0.828 0 1.5 0.671 1.5 1.5v11h-3v-11c0-0.829 0.671-1.5 1.5-1.5zM22 13c0.552 0 1 0.447 1 1l-0.5 11.5h-1.5v-11.5c0-0.553 0.448-1 1-1z"></path>
</symbol>
<symbol id="icon-edit" viewBox="0 0 32 32">
<path d="M12 20l4-2 14-14-2-2-14 14-2 4zM9.041 27.097c-0.989-2.085-2.052-3.149-4.137-4.137l3.097-8.525 4-2.435 12-12h-6l-12 12-6 20 20-6 12-12v-6l-12 12-2.435 4z"></path>
</symbol>
<symbol id="icon-archive" viewBox="0 0 32 32">
<path d="M16 18l8-8h-6v-8h-4v8h-6zM23.273 14.727l-2.242 2.242 8.128 3.031-13.158 4.907-13.158-4.907 8.127-3.031-2.242-2.242-8.727 3.273v8l16 6 16-6v-8z"></path>
</symbol>
<symbol id="icon-unarchive" viewBox="0 0 32 32">
<path d="M14 18h4v-8h6l-8-8-8 8h6zM20 13.5v3.085l9.158 3.415-13.158 4.907-13.158-4.907 9.158-3.415v-3.085l-12 4.5v8l16 6 16-6v-8z"></path>
</symbol>
</defs>
</svg>
